name rise30.9205peak61.366fall85.3838.mot
datacolumns 19
datarows 12
range 8.18331200000000 8.20163800000000
endheader
time	ground_force1_vx	ground_force1_vy	ground_force1_vz	ground_force1_px	ground_force1_py	ground_force1_pz	ground_force2_vx	ground_force2_vy	ground_force2_vz	ground_force2_px	ground_force2_py	ground_force2_pz	ground_torque1_x	ground_torque1_y	ground_torque1_z	ground_torque2_x	ground_torque2_y	ground_torque2_z	
8.18331200000000	12.39760100000000	694.22033199999998	39.57511300000000	0.22543400000000	0.00000000000000	0.10794800000000	0.00000000000000	0.00000000000000	0.00000000000000	0.00000000000000	0.00000000000000	0.00000000000000	0.00000000000000	14.95673500000000	0.00000000000000	0.00000000000000	0.00000000000000	0.00000000000000	
8.18496800000000	11.89423200000000	694.33677299999999	39.59382400000000	0.22458300000000	0.00000000000000	0.10796600000000	0.00000000000000	0.00000000000000	0.00000000000000	0.00000000000000	0.00000000000000	0.00000000000000	0.00000000000000	15.02501100000000	0.00000000000000	0.00000000000000	0.00000000000000	0.00000000000000	
8.18663300000000	11.37840200000000	694.49516700000004	39.61483300000000	0.22370600000000	0.00000000000000	0.10798500000000	0.00000000000000	0.00000000000000	0.00000000000000	0.00000000000000	0.00000000000000	0.00000000000000	0.00000000000000	15.09626300000000	0.00000000000000	0.00000000000000	0.00000000000000	0.00000000000000	
8.18831700000000	10.84989300000000	694.69557399999997	39.63816600000000	0.22280200000000	0.00000000000000	0.10800600000000	0.00000000000000	0.00000000000000	0.00000000000000	0.00000000000000	0.00000000000000	0.00000000000000	0.00000000000000	15.17049300000000	0.00000000000000	0.00000000000000	0.00000000000000	0.00000000000000	
8.18997200000000	10.30852100000000	694.93811000000005	39.66385900000000	0.22187100000000	0.00000000000000	0.10802900000000	0.00000000000000	0.00000000000000	0.00000000000000	0.00000000000000	0.00000000000000	0.00000000000000	0.00000000000000	15.24771200000000	0.00000000000000	0.00000000000000	0.00000000000000	0.00000000000000	
8.19166000000000	9.75413400000000	695.22294899999997	39.69195400000000	0.22091300000000	0.00000000000000	0.10805400000000	0.00000000000000	0.00000000000000	0.00000000000000	0.00000000000000	0.00000000000000	0.00000000000000	0.00000000000000	15.32793400000000	0.00000000000000	0.00000000000000	0.00000000000000	0.00000000000000	
8.19333200000000	9.18661400000000	695.55031899999994	39.72250100000000	0.21992700000000	0.00000000000000	0.10808000000000	0.00000000000000	0.00000000000000	0.00000000000000	0.00000000000000	0.00000000000000	0.00000000000000	0.00000000000000	15.41117800000000	0.00000000000000	0.00000000000000	0.00000000000000	0.00000000000000	
8.19496800000000	8.60587800000000	695.92050400000005	39.75555600000000	0.21891300000000	0.00000000000000	0.10810800000000	0.00000000000000	0.00000000000000	0.00000000000000	0.00000000000000	0.00000000000000	0.00000000000000	0.00000000000000	15.49746800000000	0.00000000000000	0.00000000000000	0.00000000000000	0.00000000000000	
8.19663300000000	8.01187900000000	696.33384000000001	39.79118100000000	0.21787200000000	0.00000000000000	0.10813800000000	0.00000000000000	0.00000000000000	0.00000000000000	0.00000000000000	0.00000000000000	0.00000000000000	0.00000000000000	15.58683000000000	0.00000000000000	0.00000000000000	0.00000000000000	0.00000000000000	
8.19831100000000	7.40460400000000	696.79071599999997	39.82944100000000	0.21680300000000	0.00000000000000	0.10816900000000	0.00000000000000	0.00000000000000	0.00000000000000	0.00000000000000	0.00000000000000	0.00000000000000	0.00000000000000	15.67929200000000	0.00000000000000	0.00000000000000	0.00000000000000	0.00000000000000	
8.19997200000000	6.78407500000000	697.29157099999998	39.87040700000000	0.21570900000000	0.00000000000000	0.10820200000000	0.00000000000000	0.00000000000000	0.00000000000000	0.00000000000000	0.00000000000000	0.00000000000000	0.00000000000000	15.77488400000000	0.00000000000000	0.00000000000000	0.00000000000000	0.00000000000000	
8.20163800000000	6.15035000000000	697.83688800000004	39.91415100000000	0.21458800000000	0.00000000000000	0.10823700000000	0.00000000000000	0.00000000000000	0.00000000000000	0.00000000000000	0.00000000000000	0.00000000000000	0.00000000000000	15.87363800000000	0.00000000000000	0.00000000000000	0.00000000000000	0.00000000000000	
